<svg width="11" height="10" viewBox="0 0 11 10" fill="none" xmlns="http://www.w3.org/2000/svg">
<path d="M5.5 3C5.82143 1.68417 7.03542 1.01229 9.67857 1C9.72082 0.999837 9.76269 1.00835 9.80176 1.02504C9.84083 1.04173 9.87633 1.06628 9.90621 1.09726C9.93609 1.12825 9.95976 1.16506 9.97586 1.20558C9.99195 1.2461 10.0002 1.28952 10 1.33334V7.33333C10 7.42174 9.96613 7.50652 9.90585 7.56904C9.84557 7.63155 9.76382 7.66667 9.67857 7.66667C7.10714 7.66667 6.11373 8.20438 5.5 9M5.5 3C5.17857 1.68417 3.96458 1.01229 1.32143 1C1.27918 0.999837 1.23731 1.00835 1.19824 1.02504C1.15917 1.04173 1.12367 1.06628 1.09379 1.09726C1.06391 1.12825 1.04024 1.16506 1.02414 1.20558C1.00805 1.2461 0.999843 1.28952 1 1.33334V7.29313C1 7.49896 1.12295 7.66667 1.32143 7.66667C3.89286 7.66667 4.88989 8.20833 5.5 9M5.5 3V9" stroke="#94A3B8" stroke-linecap="round" stroke-linejoin="round"/>
</svg>
