<svg width="14" height="18" viewBox="0 0 14 18" fill="none" xmlns="http://www.w3.org/2000/svg">
<path fill-rule="evenodd" clip-rule="evenodd" d="M3.1748 10.35C3.1748 10.171 3.24592 9.99934 3.37251 9.87275C3.49909 9.74617 3.67078 9.67505 3.8498 9.67505H10.1498C10.3288 9.67505 10.5005 9.74617 10.6271 9.87275C10.7537 9.99934 10.8248 10.171 10.8248 10.35C10.8248 10.5291 10.7537 10.7008 10.6271 10.8273C10.5005 10.9539 10.3288 11.025 10.1498 11.025H3.8498C3.67078 11.025 3.49909 10.9539 3.37251 10.8273C3.24592 10.7008 3.1748 10.5291 3.1748 10.35ZM3.1748 13.05C3.1748 12.871 3.24592 12.6993 3.37251 12.5728C3.49909 12.4462 3.67078 12.375 3.8498 12.375H10.1498C10.3288 12.375 10.5005 12.4462 10.6271 12.5728C10.7537 12.6993 10.8248 12.871 10.8248 13.05C10.8248 13.2291 10.7537 13.4008 10.6271 13.5273C10.5005 13.6539 10.3288 13.725 10.1498 13.725H3.8498C3.67078 13.725 3.49909 13.6539 3.37251 13.5273C3.24592 13.4008 3.1748 13.2291 3.1748 13.05Z" fill="#94A3B8"/>
<path fill-rule="evenodd" clip-rule="evenodd" d="M0.25 2.24995C0.25 1.25815 1.0582 0.449951 2.05 0.449951H8.071C8.5768 0.449951 9.0538 0.664151 9.3895 1.01785L9.3949 1.02415L13.2757 5.25595C13.5988 5.60065 13.75 6.05155 13.75 6.47995V15.75C13.75 16.7418 12.9418 17.55 11.95 17.55H2.05C1.0582 17.55 0.25 16.7418 0.25 15.75V2.24995ZM8.0701 2.24995H2.05V15.75H11.95V6.47275L8.0836 2.25625L8.0809 2.25535C8.07762 2.25297 8.07397 2.25115 8.0701 2.24995Z" fill="#94A3B8"/>
<path fill-rule="evenodd" clip-rule="evenodd" d="M8.0709 0.449951C8.30959 0.449951 8.53851 0.544772 8.7073 0.713555C8.87608 0.882338 8.9709 1.11126 8.9709 1.34995V5.57995H12.8499C12.9681 5.57995 13.0851 5.60323 13.1943 5.64846C13.3035 5.69369 13.4027 5.75998 13.4863 5.84355C13.5699 5.92713 13.6362 6.02634 13.6814 6.13554C13.7266 6.24473 13.7499 6.36176 13.7499 6.47995C13.7499 6.59814 13.7266 6.71517 13.6814 6.82437C13.6362 6.93356 13.5699 7.03277 13.4863 7.11635C13.4027 7.19992 13.3035 7.26621 13.1943 7.31144C13.0851 7.35667 12.9681 7.37995 12.8499 7.37995H8.0709C7.8322 7.37995 7.60329 7.28513 7.4345 7.11635C7.26572 6.94756 7.1709 6.71865 7.1709 6.47995V1.34995C7.1709 1.11126 7.26572 0.882338 7.4345 0.713555C7.60329 0.544772 7.8322 0.449951 8.0709 0.449951Z" fill="#94A3B8"/>
</svg>
