<svg width="17" height="13" viewBox="0 0 17 13" fill="none" xmlns="http://www.w3.org/2000/svg">
<path d="M10.875 4.91667L14.4795 3.11483C14.6001 3.05454 14.7342 3.02607 14.869 3.03214C15.0037 3.03821 15.1347 3.07861 15.2494 3.14951C15.3642 3.22041 15.4589 3.31946 15.5247 3.43726C15.5904 3.55505 15.6249 3.68769 15.625 3.82258V9.17742C15.6249 9.31231 15.5904 9.44495 15.5247 9.56274C15.4589 9.68054 15.3642 9.77959 15.2494 9.85049C15.1347 9.92139 15.0037 9.96179 14.869 9.96786C14.7342 9.97393 14.6001 9.94546 14.4795 9.88517L10.875 8.08333V4.91667ZM1.375 3.33333C1.375 2.91341 1.54181 2.51068 1.83875 2.21375C2.13568 1.91681 2.53841 1.75 2.95833 1.75H9.29167C9.71159 1.75 10.1143 1.91681 10.4113 2.21375C10.7082 2.51068 10.875 2.91341 10.875 3.33333V9.66667C10.875 10.0866 10.7082 10.4893 10.4113 10.7863C10.1143 11.0832 9.71159 11.25 9.29167 11.25H2.95833C2.53841 11.25 2.13568 11.0832 1.83875 10.7863C1.54181 10.4893 1.375 10.0866 1.375 9.66667V3.33333Z" stroke="#94A3B8" stroke-width="2" stroke-linecap="round" stroke-linejoin="round"/>
</svg>
