<svg width="30" height="24" viewBox="0 0 30 24" fill="none" xmlns="http://www.w3.org/2000/svg">
<path d="M14.2479 14.2698C13.6497 14.2698 13.1319 14.1396 12.6947 13.8781C12.2561 13.6179 11.9181 13.2491 11.678 12.7729C11.4379 12.2968 11.3185 11.7348 11.3185 11.0869C11.3185 10.5987 11.3856 10.1588 11.5211 9.76713C11.6552 9.37548 11.8537 9.04151 12.1152 8.76386C12.3755 8.48622 12.6853 8.27296 13.0434 8.12542C13.4015 7.97788 13.8026 7.90411 14.2492 7.90411C14.8474 7.90411 15.3651 8.03422 15.8024 8.29576C16.2396 8.55731 16.579 8.92482 16.8191 9.40096C17.0591 9.87711 17.1785 10.4391 17.1785 11.0869C17.1785 11.5752 17.1115 12.0137 16.976 12.4C16.8419 12.7877 16.6434 13.1216 16.3831 13.4033C16.1216 13.685 15.8131 13.8996 15.455 14.0471C15.0969 14.1946 14.6945 14.2684 14.2492 14.2684L14.2479 14.2698ZM14.2479 13.4489C14.6261 13.4489 14.9587 13.3564 15.2458 13.1713C15.5314 12.9862 15.7528 12.7166 15.9083 12.3625C16.0639 12.0084 16.1417 11.5832 16.1417 11.0869C16.1417 10.3211 15.9714 9.73628 15.6307 9.33122C15.29 8.9275 14.8286 8.72497 14.2479 8.72497C13.8602 8.72497 13.5263 8.81617 13.2432 8.9959C12.9616 9.17697 12.7416 9.44254 12.586 9.79127C12.4304 10.1413 12.3527 10.5719 12.3527 11.0856C12.3527 11.8434 12.5257 12.4269 12.8704 12.8346C13.2151 13.2437 13.6738 13.4476 14.2465 13.4476L14.2479 13.4489Z" fill="#102065"/>
<path d="M20.8898 14.2697C20.3936 14.2697 19.9831 14.1785 19.6585 13.9988C19.334 13.8177 19.0898 13.5468 18.9262 13.1846C18.7626 12.8225 18.6794 12.3718 18.6794 11.834V8.44998C18.6794 8.27293 18.7237 8.14283 18.8122 8.05833C18.9007 7.97383 19.0241 7.93225 19.1851 7.93225C19.3527 7.93225 19.4815 7.97383 19.57 8.05833C19.6585 8.14283 19.7028 8.27293 19.7028 8.44998V11.8219C19.7028 12.3611 19.8141 12.7621 20.0381 13.0277C20.2608 13.2933 20.6122 13.4261 21.0924 13.4261C21.6141 13.4261 22.0393 13.249 22.3679 12.8963C22.6965 12.5422 22.8601 12.0794 22.8601 11.5067V8.44998C22.8601 8.27293 22.9044 8.14283 22.9929 8.05833C23.0815 7.97383 23.2102 7.93225 23.3779 7.93225C23.5375 7.93225 23.6622 7.97383 23.7507 8.05833C23.8393 8.14283 23.8835 8.27293 23.8835 8.44998V13.7158C23.8835 14.0699 23.7199 14.2456 23.3913 14.2456C23.2317 14.2456 23.1069 14.1986 23.0184 14.1061C22.9299 14.0135 22.8856 13.8834 22.8856 13.7144V12.565L23.0493 12.742C22.8803 13.2383 22.6053 13.6179 22.2217 13.8781C21.8381 14.1396 21.3941 14.2697 20.8898 14.2697Z" fill="#102065"/>
<path d="M26.3206 14.2442C26.1516 14.2442 26.0242 14.1973 25.9356 14.1047C25.8471 14.0122 25.8029 13.8821 25.8029 13.7131V8.4473C25.8029 8.2783 25.8444 8.15088 25.9289 8.06236C26.0134 7.97383 26.1355 7.92957 26.2951 7.92957C26.4547 7.92957 26.5795 7.97383 26.668 8.06236C26.7565 8.15088 26.8008 8.27964 26.8008 8.4473V9.47068H26.6747C26.8088 8.97442 27.0663 8.59081 27.4446 8.32122C27.8228 8.05163 28.2909 7.90945 28.8462 7.89202C28.9723 7.88397 29.0742 7.91079 29.1493 7.97383C29.2258 8.03687 29.2673 8.14417 29.2754 8.29574C29.2834 8.43925 29.2499 8.55326 29.1748 8.63642C29.0983 8.72092 28.9803 8.77054 28.8207 8.78798L28.6182 8.81346C28.0455 8.86443 27.6055 9.04684 27.2984 9.36338C26.9912 9.67858 26.837 10.1105 26.837 10.6577V13.7144C26.837 13.8834 26.7927 14.0135 26.7042 14.1061C26.6157 14.1986 26.4869 14.2456 26.3192 14.2456L26.3206 14.2442Z" fill="#102065"/>
<g opacity="0.2">
<path d="M8.27518 2.94009C8.24969 2.94009 8.22421 2.93606 8.19873 2.92668L3.90668 1.31716C3.79401 1.27424 3.73634 1.14816 3.77926 1.03549C3.82218 0.922826 3.94826 0.865152 4.06092 0.908073L8.35297 2.51759C8.46564 2.56051 8.52331 2.68659 8.48039 2.79926C8.44686 2.88644 8.3637 2.94143 8.27518 2.94143V2.94009Z" fill="#102065"/>
</g>
<path d="M8.27514 8.85638C8.11017 8.85638 7.9519 8.7625 7.87813 8.60289C7.66219 8.13747 7.1069 7.31393 5.82331 7.01751C5.19694 6.87265 4.85626 6.99605 4.38414 7.16639L4.25806 7.21199C4.03004 7.29247 3.78057 7.1731 3.70009 6.94642C3.61962 6.71841 3.73899 6.46893 3.96566 6.38846L4.08772 6.3442C4.60679 6.15642 5.14329 5.96328 6.01914 6.16581C7.22225 6.44345 8.18796 7.19724 8.67082 8.23404C8.77275 8.45266 8.67752 8.71287 8.4589 8.8148C8.39854 8.84297 8.33684 8.85504 8.27514 8.85504V8.85638Z" fill="#102065"/>
<path d="M6.1238 5.38655C6.07417 5.38655 6.0232 5.38118 5.97358 5.3718C5.92529 5.36241 5.87701 5.34765 5.83006 5.32753C5.78446 5.30876 5.73886 5.28461 5.69728 5.25779C5.6557 5.22962 5.6168 5.19743 5.58193 5.16256C5.43975 5.01904 5.35794 4.82188 5.35794 4.62069C5.35794 4.57106 5.3633 4.52009 5.37269 4.47047C5.38208 4.42084 5.39683 4.37255 5.41695 4.32695C5.43573 4.28135 5.45987 4.23574 5.4867 4.19417C5.51487 4.15259 5.54705 4.11369 5.58193 4.07882C5.76032 3.90043 6.0232 3.81861 6.27268 3.86824C6.32097 3.87763 6.37059 3.89372 6.41619 3.9125C6.4618 3.93262 6.5074 3.95542 6.54898 3.98359C6.59056 4.01041 6.62946 4.0426 6.66433 4.07882C6.6992 4.11369 6.73139 4.15259 6.75956 4.19417C6.78638 4.23574 6.81053 4.28001 6.8293 4.32695C6.84942 4.37255 6.86284 4.42084 6.87357 4.47047C6.88295 4.52009 6.88832 4.56972 6.88832 4.62069C6.88832 4.82188 6.8065 5.01904 6.66433 5.16256C6.62946 5.19743 6.59056 5.22962 6.54898 5.25779C6.5074 5.28461 6.46314 5.30876 6.41619 5.32753C6.37059 5.34765 6.32097 5.36107 6.27268 5.3718C6.22305 5.38118 6.17343 5.38655 6.12246 5.38655H6.1238Z" fill="#102065"/>
<path d="M8.18666 14.762H5.24392C5.0025 14.762 4.80667 14.5662 4.80667 14.3247C4.80667 14.0833 5.0025 13.8875 5.24392 13.8875H8.18666C8.978 13.8875 9.62315 13.2437 9.62315 12.451C9.62315 12.2096 9.81898 12.0137 10.0604 12.0137C10.3018 12.0137 10.4977 12.2096 10.4977 12.451C10.4977 13.7252 9.46086 14.762 8.18666 14.762Z" fill="#102065"/>
<path d="M10.0604 12.8883C9.81896 12.8883 9.62314 12.6924 9.62314 12.451C9.62314 11.8555 9.24893 11.315 8.69096 11.1057L3.45332 9.14212C2.43396 8.75986 1.74992 7.77269 1.74992 6.68492V0.437312C1.74992 0.195885 1.94574 6.10352e-05 2.18717 6.10352e-05C2.4286 6.10352e-05 2.62442 0.195885 2.62442 0.437312V6.68492C2.62442 7.41055 3.08045 8.06911 3.76047 8.32395L8.99811 10.2876C9.89542 10.6242 10.4976 11.4934 10.4976 12.451C10.4976 12.6924 10.3018 12.8883 10.0604 12.8883Z" fill="#102065"/>
<path d="M10.0604 12.8882C9.81899 12.8882 9.62317 12.6924 9.62317 12.451V3.3894C9.62317 3.14797 9.81899 2.95215 10.0604 2.95215C10.3018 2.95215 10.4977 3.14797 10.4977 3.3894V12.451C10.4977 12.6924 10.3018 12.8882 10.0604 12.8882Z" fill="#102065"/>
<g opacity="0.2">
<path d="M7.74669 12.6723C7.72389 12.6723 7.70109 12.6683 7.67829 12.6616L2.64318 11.0024C1.08731 10.6094 0.000888824 9.21584 0.000888824 7.61035V1.91534C0.000888824 1.79463 0.0988018 1.69672 0.219516 1.69672C0.340229 1.69672 0.438142 1.79463 0.438142 1.91534V7.61035C0.438142 9.01734 1.39178 10.2392 2.75719 10.5813C2.76255 10.5813 2.76792 10.5839 2.77194 10.5853L7.8151 12.2471C7.93044 12.2847 7.99214 12.4081 7.95459 12.5234C7.92374 12.6159 7.83924 12.6736 7.74669 12.6736V12.6723Z" fill="#102065"/>
</g>
<g opacity="0.1">
<path d="M3.26824 12.6723C3.26019 12.6723 3.25214 12.6723 3.2441 12.6723C2.02623 12.5395 0.900907 12.0808 0.0773712 11.3833C-0.015176 11.3055 -0.0259065 11.1674 0.0518869 11.0748C0.12968 10.9823 0.267831 10.9716 0.360378 11.0494C1.11819 11.6918 2.15901 12.1143 3.29104 12.2377C3.41041 12.2511 3.49759 12.3584 3.48418 12.4791C3.47211 12.5918 3.37688 12.6736 3.2669 12.6736L3.26824 12.6723Z" fill="#102065"/>
</g>
<path d="M7.65016 19.2445C7.34435 18.9213 6.94466 18.7013 6.45375 18.5819C6.86552 18.4357 7.20486 18.2091 7.47177 17.9046C7.82319 17.5036 7.99889 17.0019 7.99889 16.3997C7.99889 15.8618 7.87549 15.4058 7.63004 15.0316C7.38325 14.6574 7.0305 14.373 6.57045 14.1772C6.11039 13.9814 5.54706 13.8835 4.88179 13.8835H4.5344C4.03545 13.8835 3.63173 14.2872 3.63173 14.7862H4.71816C5.42903 14.7862 5.96956 14.9297 6.33975 15.2167C6.70859 15.5037 6.89369 15.9303 6.89369 16.4963C6.89369 17.0623 6.70859 17.4633 6.33975 17.7544C5.9709 18.0468 5.43037 18.1916 4.71816 18.1916H2.11879V14.7862V14.3637C2.11879 14.0981 1.90419 13.8835 1.63862 13.8835C1.43743 13.8835 1.28452 13.9358 1.1799 14.0404C1.07528 14.145 1.02298 14.2979 1.02298 14.4991V22.9115C1.02298 23.1127 1.07528 23.2656 1.1799 23.3702C1.28452 23.4749 1.43743 23.5272 1.63862 23.5272H5.04409C6.05674 23.5272 6.84004 23.2992 7.39666 22.8431C7.95329 22.3871 8.23093 21.7312 8.23093 20.8728C8.23093 20.1982 8.03645 19.6549 7.65016 19.2445ZM6.57581 22.1859C6.21099 22.4783 5.66375 22.6232 4.9341 22.6232H2.11611V19.0943H4.9341C5.66375 19.0943 6.21099 19.2378 6.57581 19.5248C6.94063 19.8119 7.12304 20.2572 7.12304 20.8581C7.12304 21.4589 6.94063 21.8935 6.57581 22.1846V22.1859Z" fill="#102065"/>
<path d="M12.2239 23.6318C11.6687 23.6318 11.1871 23.5111 10.7794 23.2683C10.373 23.0255 10.0578 22.6835 9.8338 22.2409C9.61115 21.7983 9.49983 21.2765 9.49983 20.6729C9.49983 20.2196 9.56287 19.8105 9.68761 19.4457C9.81234 19.0822 9.9961 18.771 10.2389 18.5122C10.4816 18.2533 10.7687 18.0561 11.1013 17.9193C11.4339 17.7825 11.8081 17.7141 12.2226 17.7141C12.7779 17.7141 13.2594 17.8362 13.6671 18.0776C14.0735 18.3204 14.3887 18.6624 14.6127 19.105C14.8354 19.5476 14.9467 20.0694 14.9467 20.6729C14.9467 21.1263 14.8837 21.534 14.7589 21.8935C14.6342 22.2543 14.4491 22.5641 14.2077 22.827C13.9649 23.0899 13.6779 23.2884 13.3452 23.4252C13.0126 23.562 12.6384 23.6304 12.2239 23.6304V23.6318ZM12.2239 22.8686C12.5767 22.8686 12.8852 22.7827 13.1521 22.6097C13.4177 22.438 13.6242 22.1872 13.7691 21.8586C13.9139 21.53 13.9864 21.1343 13.9864 20.6729C13.9864 19.9607 13.8281 19.4162 13.5102 19.0406C13.1937 18.6651 12.7645 18.4773 12.2239 18.4773C11.8645 18.4773 11.5533 18.5618 11.2904 18.7294C11.0275 18.8984 10.825 19.1439 10.6801 19.4685C10.5353 19.7931 10.4629 20.1941 10.4629 20.6716C10.4629 21.3758 10.6238 21.9176 10.9444 22.2972C11.2649 22.6768 11.6915 22.8673 12.2239 22.8673V22.8686Z" fill="#102065"/>
<path d="M18.7518 23.6318C18.1965 23.6318 17.715 23.5111 17.3073 23.2683C16.9009 23.0255 16.5857 22.6835 16.3617 22.2409C16.139 21.7983 16.0277 21.2765 16.0277 20.6729C16.0277 20.2196 16.0908 19.8105 16.2155 19.4457C16.3402 19.0822 16.524 18.771 16.7667 18.5122C17.0095 18.2533 17.2965 18.0561 17.6292 17.9193C17.9618 17.7825 18.336 17.7141 18.7505 17.7141C19.3058 17.7141 19.7873 17.8362 20.195 18.0776C20.6014 18.3204 20.9166 18.6624 21.1406 19.105C21.3633 19.5476 21.4759 20.0694 21.4759 20.6729C21.4759 21.1263 21.4129 21.534 21.2882 21.8935C21.1634 22.2543 20.9783 22.5641 20.7369 22.827C20.4941 23.0899 20.2071 23.2884 19.8745 23.4252C19.5418 23.562 19.1676 23.6304 18.7532 23.6304L18.7518 23.6318ZM18.7518 22.8686C19.1046 22.8686 19.4131 22.7827 19.68 22.6097C19.9455 22.438 20.1521 22.1872 20.297 21.8586C20.4418 21.53 20.5142 21.1343 20.5142 20.6729C20.5142 19.9607 20.356 19.4162 20.0381 19.0406C19.7216 18.6651 19.2924 18.4773 18.7532 18.4773C18.3937 18.4773 18.0825 18.5618 17.8196 18.7294C17.5568 18.8984 17.3542 19.1439 17.2094 19.4685C17.0645 19.7931 16.9921 20.1941 16.9921 20.6716C16.9921 21.3758 17.153 21.9176 17.4736 22.2972C17.7942 22.6768 18.2207 22.8673 18.7532 22.8673L18.7518 22.8686Z" fill="#102065"/>
<path d="M23.3778 23.609C23.2209 23.609 23.1042 23.5661 23.0251 23.4802C22.9473 23.3944 22.9071 23.2723 22.9071 23.1167V15.6499C22.9071 15.493 22.946 15.3736 23.0251 15.2918C23.1029 15.21 23.2209 15.1684 23.3778 15.1684C23.5348 15.1684 23.6434 15.21 23.7306 15.2918C23.8164 15.3736 23.8594 15.493 23.8594 15.6499V20.3577H23.8835L26.2897 18.0561C26.3997 17.9542 26.4949 17.8764 26.5768 17.8214C26.6586 17.7664 26.7699 17.7396 26.9107 17.7396C27.0355 17.7396 27.1334 17.7731 27.2045 17.8389C27.2756 17.9059 27.3077 17.9877 27.3037 18.0856C27.2997 18.1836 27.2514 18.2868 27.1575 18.3968L24.5984 20.8272V20.3108L27.3815 22.929C27.4915 23.0389 27.5465 23.1449 27.5465 23.2455C27.5465 23.3461 27.5089 23.4333 27.4352 23.5044C27.3614 23.5754 27.2648 23.6103 27.1481 23.6103C27.0073 23.6103 26.8933 23.5808 26.8075 23.5218C26.7216 23.4628 26.6157 23.3756 26.4909 23.2576L23.8848 20.8513H23.8607V23.1167C23.8607 23.4453 23.6998 23.6103 23.3792 23.6103L23.3778 23.609Z" fill="#102065"/>
</svg>
