<svg width="17" height="17" viewBox="0 0 17 17" fill="none" xmlns="http://www.w3.org/2000/svg">
<path d="M13.5382 11.2986L12.4188 10.1791L13.5382 9.05973C14.265 8.31432 14.669 7.31256 14.6624 6.27146C14.6559 5.23035 14.2395 4.23373 13.5033 3.49749C12.7672 2.76125 11.7706 2.34468 10.7295 2.33801C9.68843 2.33134 8.68661 2.73511 7.9411 3.46185L6.8201 4.58127L5.70148 3.46185L6.8209 2.34244C7.86021 1.30312 9.26983 0.719238 10.7396 0.719238C12.2095 0.719238 13.6191 1.30312 14.6584 2.34244C15.6977 3.38176 16.2816 4.79137 16.2816 6.26119C16.2816 7.731 15.6977 9.14062 14.6584 10.1799L13.5382 11.2986ZM11.2994 13.5382L10.1799 14.6576C9.66532 15.1722 9.05438 15.5804 8.382 15.8589C7.70962 16.1375 6.98897 16.2808 6.26119 16.2808C5.53341 16.2808 4.81276 16.1375 4.14038 15.8589C3.468 15.5804 2.85706 15.1722 2.34244 14.6576C1.82782 14.143 1.4196 13.532 1.14109 12.8597C0.862585 12.1873 0.719238 11.4666 0.719238 10.7389C0.719238 10.0111 0.862585 9.29042 1.14109 8.61804C1.4196 7.94566 1.82782 7.33472 2.34244 6.8201L3.46185 5.70069L4.58206 6.8201L3.46185 7.94031C2.73511 8.68582 2.33134 9.68764 2.33801 10.7287C2.34468 11.7698 2.76125 12.7664 3.49749 13.5025C4.23373 14.2387 5.23035 14.6551 6.27146 14.6616C7.31256 14.6682 8.31432 14.2642 9.05973 13.5374L10.1799 12.4188L11.2994 13.5382ZM10.7396 5.14098L11.8591 6.2604L6.26119 11.8591L5.14177 10.7389L10.7389 5.14177L10.7396 5.14098Z" fill="#94A3B8"/>
</svg>
