<svg width="14" height="14" viewBox="0 0 14 14" fill="none" xmlns="http://www.w3.org/2000/svg">
<path fill-rule="evenodd" clip-rule="evenodd" d="M12 1.5H2C1.86739 1.5 1.74021 1.55268 1.64645 1.64645C1.55268 1.74021 1.5 1.86739 1.5 2V12C1.5 12.1326 1.55268 12.2598 1.64645 12.3536C1.74021 12.4473 1.86739 12.5 2 12.5H12C12.1326 12.5 12.2598 12.4473 12.3536 12.3536C12.4473 12.2598 12.5 12.1326 12.5 12V2C12.5 1.86739 12.4473 1.74021 12.3536 1.64645C12.2598 1.55268 12.1326 1.5 12 1.5ZM2 0C1.46957 0 0.960859 0.210714 0.585786 0.585786C0.210714 0.960859 0 1.46957 0 2V12C0 12.5304 0.210714 13.0391 0.585786 13.4142C0.960859 13.7893 1.46957 14 2 14H12C12.5304 14 13.0391 13.7893 13.4142 13.4142C13.7893 13.0391 14 12.5304 14 12V2C14 1.46957 13.7893 0.960859 13.4142 0.585786C13.0391 0.210714 12.5304 0 12 0H2ZM11 9.857L8.5 7L6.024 9.83L4.5 8L3 9.8V11H11V9.857ZM5.5 7C5.89782 7 6.27936 6.84196 6.56066 6.56066C6.84196 6.27936 7 5.89782 7 5.5C7 5.10218 6.84196 4.72064 6.56066 4.43934C6.27936 4.15804 5.89782 4 5.5 4C5.10218 4 4.72064 4.15804 4.43934 4.43934C4.15804 4.72064 4 5.10218 4 5.5C4 5.89782 4.15804 6.27936 4.43934 6.56066C4.72064 6.84196 5.10218 7 5.5 7Z" fill="#94A3B8"/>
</svg>
